<?xml version="1.0" encoding="UTF-8" standalone="no"?>
<svg
   xmlns:dc="http://purl.org/dc/elements/1.1/"
   xmlns:cc="http://creativecommons.org/ns#"
   xmlns:rdf="http://www.w3.org/1999/02/22-rdf-syntax-ns#"
   xmlns:svg="http://www.w3.org/2000/svg"
   xmlns="http://www.w3.org/2000/svg"
   xmlns:sodipodi="http://sodipodi.sourceforge.net/DTD/sodipodi-0.dtd"
   xmlns:inkscape="http://www.inkscape.org/namespaces/inkscape"
   width="249.43588"
   height="153.556"
   id="svg4368"
   version="1.1"
   inkscape:version="1.0.1 (3bc2e813f5, 2020-09-07)"
   sodipodi:docname="logo.svg">
  <defs
     id="defs4370">
    <clipPath
       clipPathUnits="userSpaceOnUse"
       id="clipPath392">
      <path
         inkscape:connector-curvature="0"
         d="m 54.956,429.203 h 95.365 v 36.982 H 54.956 Z"
         id="path394" />
    </clipPath>
    <clipPath
       clipPathUnits="userSpaceOnUse"
       id="clipPath372">
      <path
         inkscape:connector-curvature="0"
         d="m 58.969,429.203 h 74.466 v 36.982 H 58.969 Z"
         id="path374" />
    </clipPath>
    <clipPath
       clipPathUnits="userSpaceOnUse"
       id="clipPath348">
      <path
         inkscape:connector-curvature="0"
         d="m 54.956,429.203 h 95.365 v 36.982 H 54.956 Z"
         id="path350" />
    </clipPath>
  </defs>
  <sodipodi:namedview
     id="base"
     pagecolor="#ffffff"
     bordercolor="#666666"
     borderopacity="1.0"
     inkscape:pageopacity="0.0"
     inkscape:pageshadow="2"
     inkscape:zoom="4.8021722"
     inkscape:cx="147.36357"
     inkscape:cy="85.052364"
     inkscape:document-units="px"
     inkscape:current-layer="layer1"
     showgrid="false"
     fit-margin-top="0"
     fit-margin-left="0"
     fit-margin-right="0"
     fit-margin-bottom="0"
     inkscape:window-width="2560"
     inkscape:window-height="1376"
     inkscape:window-x="1920"
     inkscape:window-y="27"
     inkscape:window-maximized="1"
     inkscape:document-rotation="0" />
  <metadata
     id="metadata4373">
    <rdf:RDF>
      <cc:Work
         rdf:about="">
        <dc:format>image/svg+xml</dc:format>
        <dc:type
           rdf:resource="http://purl.org/dc/dcmitype/StillImage" />
        <dc:title></dc:title>
      </cc:Work>
    </rdf:RDF>
  </metadata>
  <g
     inkscape:label="Ebene 1"
     inkscape:groupmode="layer"
     id="layer1"
     transform="translate(-165.82629,-427.59374)">
    <g
       id="g886"
       transform="matrix(3.2055117,0,0,3.2055117,-365.73183,-943.06303)"
       style="stroke-width:0.311963">
      <g
         id="g929"
         style="stroke-width:0.311963">
        <g
           transform="matrix(1.25,0,0,-1.25,92.115043,1010.325)"
           id="g344"
           style="fill:#663366;fill-opacity:1;stroke-width:0.311963">
          <g
             id="g346"
             clip-path="url(#clipPath348)"
             style="fill:#663366;fill-opacity:1;stroke-width:0.311963">
            <g
               id="g352"
               transform="translate(80.6634,446.7655)"
               style="fill:#663366;fill-opacity:1;stroke-width:0.311963">
              <path
                 inkscape:connector-curvature="0"
                 d="M 0,0 -0.095,-0.901 H 0.822 L 0.336,-5.527 h -0.895 l -0.094,-0.901 h 3.546 l 0.095,0.901 H 2.434 l 0.424,4.034 c 0.459,0.296 0.874,0.444 1.214,0.444 0.502,0 0.692,-0.296 0.621,-0.976 L 4.325,-5.527 H 3.823 L 3.728,-6.428 h 3.509 l 0.095,0.901 H 6.453 l 0.38,3.621 c 0.139,1.315 -0.46,2.083 -1.598,2.083 -0.68,0 -1.481,-0.31 -2.295,-0.886 L 3.015,0 H 0"
                 style="fill:#663366;fill-opacity:1;fill-rule:nonzero;stroke:none;stroke-width:0.311963"
                 id="path354" />
            </g>
            <g
               id="g356"
               transform="translate(106.506,444.3094)"
               style="fill:#663366;fill-opacity:1;stroke-width:0.311963">
              <path
                 inkscape:connector-curvature="0"
                 d="m 0,0 c -0.967,0.635 -1.073,0.753 -1.033,1.137 0.031,0.296 0.381,0.532 0.75,0.532 0.562,0 0.952,-0.369 1.064,-0.99 H 1.328 L 1.527,2.571 H 0.877 L 0.845,2.276 C 0.498,2.482 0.066,2.6 -0.436,2.6 c -1.33,0 -2.379,-0.841 -2.498,-1.979 -0.058,-0.548 0.135,-1.109 0.551,-1.508 0.176,-0.148 0.432,-0.384 0.813,-0.695 0.136,-0.118 0.273,-0.221 0.381,-0.31 0.497,-0.339 0.613,-0.502 0.58,-0.812 -0.033,-0.311 -0.387,-0.592 -0.757,-0.592 -0.679,0 -1.186,0.518 -1.296,1.301 h -0.576 l -0.224,-2.128 h 0.555 l 0.219,0.37 c 0.374,-0.237 0.873,-0.396 1.508,-0.396 1.434,0 2.533,0.853 2.651,1.977 C 1.558,-1.345 1.2,-0.813 0,0"
                 style="fill:#663366;fill-opacity:1;fill-rule:nonzero;stroke:none;stroke-width:0.311963"
                 id="path358" />
            </g>
            <g
               id="g360"
               transform="translate(92.9944,448.7415)"
               style="fill:#663366;fill-opacity:1;stroke-width:0.311963">
              <path
                 inkscape:connector-curvature="0"
                 d="m 0,0 -2.207,-1.08 -0.104,-0.88 h -1.026 l -0.098,-0.887 -0.042,-0.03 h 1.041 l -0.351,-3.466 c -0.132,-1.326 0.54,-2.154 1.852,-2.154 0.884,0 1.294,0.112 1.929,0.458 0.046,0.026 0.084,0.057 0.115,0.092 L 0.956,-7.191 C 0.283,-7.598 -0.001,-7.528 -0.39,-7.281 l 0.004,10e-4 c -0.241,0.168 -0.28,0.587 -0.214,1.254 l 0.319,3.149 h 1.718 l 0.092,0.899 H -0.189 L 0,0"
                 style="fill:#663366;fill-opacity:1;fill-rule:nonzero;stroke:none;stroke-width:0.311963"
                 id="path362" />
            </g>
            <g
               id="g364"
               transform="translate(100.2648,445.864)"
               style="fill:#663366;fill-opacity:1;stroke-width:0.311963">
              <path
                 inkscape:connector-curvature="0"
                 d="M 0,0 H 0.722 L -1.02,-3.144 -1.839,0 h 0.731 l 0.094,0.901 H -4.641 L -4.736,0 h 0.858 l 1.408,-5.289 -2.252,-3.858 h 1.847 L 1.591,0 H 2.342 L 2.437,0.901 H 0.095 Z"
                 style="fill:#663366;fill-opacity:1;fill-rule:nonzero;stroke:none;stroke-width:0.311963"
                 id="path366" />
            </g>
          </g>
        </g>
        <g
           transform="matrix(1.25,0,0,-1.25,92.115043,1010.325)"
           id="g368"
           style="fill:#663366;fill-opacity:1;stroke-width:0.311963">
          <g
             id="g370"
             clip-path="url(#clipPath372)"
             style="fill:#663366;fill-opacity:1;stroke-width:0.311963">
            <g
               id="g376"
               transform="translate(66.592,453.8883)"
               style="fill:#663366;fill-opacity:1;stroke-width:0.311963">
              <path
                 inkscape:connector-curvature="0"
                 d="m 0,0 c 0,0 3.968,1.149 7.188,1.067 3.388,-0.087 6.589,-1.212 7.234,-1.403 0.449,-0.133 0.96,-0.062 1.083,0.372 C 15.567,0.25 15.599,0.75 14.762,1.485 12.361,3.591 9.495,4.327 9.495,4.327 5.149,8.855 1.368,9.464 1.368,9.464 2.642,8.104 3.259,4.493 2.808,4.341 -4.378,2.138 -6.437,-2.224 -6.437,-2.224 -5.909,-1.787 -3.67,0.285 1.385,1.14 0.667,0.556 0,0 0,0"
                 style="fill:#663366;fill-opacity:1;fill-rule:nonzero;stroke:none;stroke-width:0.311963"
                 id="path378" />
            </g>
            <g
               id="g380"
               transform="translate(71.7854,462.5864)"
               style="fill:#663366;fill-opacity:1;stroke-width:0.311963">
              <path
                 inkscape:connector-curvature="0"
                 d="M 0,0 C 2.28,-1.14 4.267,-3.941 4.267,-3.941 3.699,-1.182 -0.141,4.01 -0.081,3.597 0.188,1.741 0,0 0,0"
                 style="fill:#663366;fill-opacity:1;fill-rule:nonzero;stroke:none;stroke-width:0.311963"
                 id="path382" />
            </g>
            <g
               id="g384"
               transform="translate(65.2844,449.1836)"
               style="fill:#663366;fill-opacity:1;stroke-width:0.311963">
              <path
                 inkscape:connector-curvature="0"
                 d="M 0,0 -0.096,-0.961 H 0.82 L 0.502,-4.14 0.516,-4.167 0.485,-4.153 c -1.16,0.098 -2.221,0.329 -3.193,0.695 -1.167,0.455 -2.451,1.23 -2.782,2.361 -0.415,1.584 0.644,2.807 1.396,3.393 L -4.116,0.928 c 0.403,1.307 1.409,2.507 1.409,2.507 -2.5,-1.378 -3.267,-2.717 -3.551,-3.685 -0.116,-0.434 -0.098,-0.781 -0.057,-1.16 0.16,-0.876 0.689,-1.502 1.32,-2.025 1.443,-1.151 3.286,-1.736 5.347,-2.008 L 0.384,-5.433 0.37,-5.459 0.126,-7.899 H -0.759 L -0.855,-8.86 h 4.024 l 0.097,0.961 H 2.359 l 0.23,2.313 -0.015,0.033 0.036,-0.016 c 0.798,-0.01 1.98,0.016 1.98,0.016 l 0.191,2.105 H 4.24 L 3.987,-4.179 C 3.514,-4.224 2.877,-4.216 2.746,-4.214 l -0.04,-0.019 0.025,0.038 0.025,0.26 0.298,2.974 H 5.376 L 5.259,-2.13 H 6.25 L 6.463,0 H 0"
                 style="fill:#663366;fill-opacity:1;fill-rule:nonzero;stroke:none;stroke-width:0.311963"
                 id="path386" />
            </g>
          </g>
        </g>
        <g
           transform="matrix(1.25,0,0,-1.25,92.115043,1010.325)"
           id="g388"
           style="fill:#663366;fill-opacity:1;stroke-width:0.311963">
          <g
             id="g390"
             clip-path="url(#clipPath392)"
             style="fill:#663366;fill-opacity:1;stroke-width:0.311963">
            <g
               id="g396"
               transform="translate(74.0773,443.5291)"
               style="fill:#663366;fill-opacity:1;stroke-width:0.311963">
              <path
                 inkscape:connector-curvature="0"
                 d="M 0,0 C -0.178,-1.699 0.176,-2.541 1.033,-2.541 1.934,-2.541 2.465,-1.714 2.645,0 2.822,1.685 2.456,2.556 1.598,2.556 0.682,2.556 0.185,1.758 0,0 M 1.704,3.414 C 3.846,3.414 5.206,2.01 4.997,0.03 4.901,-0.886 4.478,-1.684 3.746,-2.32 2.965,-3 2.121,-3.295 0.969,-3.295 c -2.128,0 -3.531,1.419 -3.328,3.339 0.206,1.966 1.89,3.37 4.063,3.37"
                 style="fill:#663366;fill-opacity:1;fill-rule:nonzero;stroke:none;stroke-width:0.311963"
                 id="path398" />
            </g>
          </g>
        </g>
        <text
           xml:space="preserve"
           style="font-style:italic;font-variant:normal;font-weight:bold;font-stretch:normal;font-size:10px;line-height:1.25;font-family:sans-serif;-inkscape-font-specification:'sans-serif, Bold Italic';font-variant-ligatures:normal;font-variant-caps:normal;font-variant-numeric:normal;font-variant-east-asian:normal;fill:#663366;fill-opacity:1;stroke:none;stroke-width:0.311963"
           x="217.89879"
           y="471.75394"
           id="text933"><tspan
             sodipodi:role="line"
             id="tspan931"
             x="217.89879"
             y="471.75394"
             style="font-style:italic;font-variant:normal;font-weight:bold;font-stretch:normal;font-size:10px;font-family:sans-serif;-inkscape-font-specification:'sans-serif, Bold Italic';font-variant-ligatures:normal;font-variant-caps:normal;font-variant-numeric:normal;font-variant-east-asian:normal;fill:#663366;fill-opacity:1;stroke-width:0.311963">RDM</tspan></text>
      </g>
    </g>
  </g>
</svg>
